ffmpeg version 4.3.1 Copyright (c) 2000-2020 the FFmpeg developers
  built with gcc 9.3.0 (Alpine 9.3.0)
  configuration: --prefix=/usr --enable-avresample --enable-avfilter --enable-gnutls --enable-gpl --enable-libass --enable-libmp3lame --enable-libvorbis --enable-libvpx --enable-libxvid --enable-libx264 --enable-libx265 --enable-libtheora --enable-libv4l2 --enable-libdav1d --enable-postproc --enable-pic --enable-pthreads --enable-shared --enable-libxcb --enable-libssh --disable-stripping --disable-static --disable-librtmp --enable-vaapi --enable-vdpau --enable-libopus --enable-libaom --disable-debug
  libavutil      56. 51.100 / 56. 51.100
  libavcodec     58. 91.100 / 58. 91.100
  libavformat    58. 45.100 / 58. 45.100
  libavdevice    58. 10.100 / 58. 10.100
  libavfilter     7. 85.100 /  7. 85.100
  libavresample   4.  0.  0 /  4.  0.  0
  libswscale      5.  7.100 /  5.  7.100
  libswresample   3.  7.100 /  3.  7.100
  libpostproc    55.  7.100 / 55.  7.100
Input #0, image2pipe, from './tmp/gource.pipe':
  Duration: N/A, bitrate: N/A
    Stream #0:0: Video: ppm, rgb24, 1750x970, 60 fps, 60 tbr, 60 tbn, 60 tbc
Input #1, image2pipe, from './tmp/overlay.pipe':
  Duration: N/A, bitrate: N/A
    Stream #1:0: Video: ppm, rgb24, 1920x1080, 60 fps, 60 tbr, 60 tbn, 60 tbc
Stream mapping:
  Stream #0:0 (ppm) -> pad
  Stream #1:0 (ppm) -> scale
  Stream #1:0 (ppm) -> scale
  vstack -> Stream #0:0 (libx264)
Press [q] to stop, [?] for help
[image2pipe @ 0x7f4e23ea71c0] Thread message queue blocking; consider raising the thread_queue_size option (current value: 8)
[image2pipe @ 0x7f4e22269080] Thread message queue blocking; consider raising the thread_queue_size option (current value: 8)
[libx264 @ 0x562a4009e9c0] using cpu capabilities: MMX2 SSE2Fast SSSE3 SSE4.2 AVX FMA3 BMI2 AVX2
[libx264 @ 0x562a4009e9c0] profile High, level 5.1, 4:2:0, 8-bit
[libx264 @ 0x562a4009e9c0] 264 - core 157 - H.264/MPEG-4 AVC codec - Copyleft 2003-2018 - http://www.videolan.org/x264.html - options: cabac=1 ref=3 deblock=1:0:0 analyse=0x3:0x113 me=hex subme=7 psy=1 psy_rd=1.00:0.00 mixed_ref=1 me_range=16 chroma_me=1 trellis=1 8x8dct=1 cqm=0 deadzone=21,11 fast_pskip=1 chroma_qp_offset=-2 threads=6 lookahead_threads=1 sliced_threads=0 nr=0 decimate=1 interlaced=0 bluray_compat=0 constrained_intra=0 bframes=0 weightp=2 keyint=250 keyint_min=25 scenecut=40 intra_refresh=0 rc_lookahead=40 rc=crf mbtree=1 crf=23.0 qcomp=0.60 qpmin=0 qpmax=69 qpstep=4 ip_ratio=1.40 aq=1:1.00
Output #0, mp4, to './output/gource.mp4':
  Metadata:
    encoder         : Lavf58.45.100
    Stream #0:0: Video: h264 (libx264) (avc1 / 0x31637661), yuv420p, 1920x1080, q=-1--1, 60 fps, 15360 tbn, 60 tbc (default)
    Metadata:
      encoder         : Lavc58.91.100 libx264
    Side data:
      cpb: bitrate max/min/avg: 0/0/0 buffer size: 0 vbv_delay: N/A
frame=   32 fps=0.0 q=0.0 size=       0kB time=00:00:00.00 bitrate=N/A speed=   0x    frame=   45 fps= 44 q=0.0 size=       0kB time=00:00:00.00 bitrate=N/A speed=   0x    frame=   59 fps= 38 q=31.0 size=       0kB time=00:00:00.18 bitrate=   2.1kbits/s speed=0.12x    frame=   69 fps= 34 q=31.0 size=       0kB time=00:00:00.35 bitrate=   1.1kbits/s speed=0.172x    frame=   79 fps= 31 q=31.0 size=       0kB time=00:00:00.51 bitrate=   0.7kbits/s speed=0.203x    frame=   88 fps= 29 q=31.0 size=       0kB time=00:00:00.66 bitrate=   0.6kbits/s speed=0.218x    frame=   97 fps= 27 q=31.0 size=     256kB time=00:00:00.81 bitrate=2568.2kbits/s speed=0.229x    frame=  106 fps= 26 q=31.0 size=     256kB time=00:00:00.96 bitrate=2169.7kbits/s speed=0.237x    frame=  115 fps= 25 q=31.0 size=     256kB time=00:00:01.11 bitrate=1878.3kbits/s speed=0.244x    frame=  124 fps= 24 q=31.0 size=     512kB time=00:00:01.26 bitrate=3311.4kbits/s speed=0.249x    frame=  133 fps= 24 q=31.0 size=     512kB time=00:00:01.41 bitrate=2960.8kbits/s speed=0.254x    frame=  142 fps= 23 q=31.0 size=     768kB time=00:00:01.56 bitrate=4015.9kbits/s speed=0.257x    frame=  151 fps= 23 q=31.0 size=     768kB time=00:00:01.71 bitrate=3665.0kbits/s speed=0.26x    frame=  160 fps= 23 q=31.0 size=     768kB time=00:00:01.86 bitrate=3370.5kbits/s speed=0.263x    frame=  169 fps= 22 q=31.0 size=    1024kB time=00:00:02.01 bitrate=4159.7kbits/s speed=0.265x    frame=  176 fps= 22 q=31.0 size=    1024kB time=00:00:02.13 bitrate=3932.2kbits/s speed=0.262x    frame=  185 fps= 21 q=31.0 size=    1280kB time=00:00:02.28 bitrate=4592.3kbits/s speed=0.264x    frame=  193 fps= 21 q=31.0 size=    1280kB time=00:00:02.41 bitrate=4339.0kbits/s speed=0.264x    frame=  201 fps= 21 q=31.0 size=    1280kB time=00:00:02.55 bitrate=4112.1kbits/s speed=0.263x    frame=  208 fps= 20 q=31.0 size=    1280kB time=00:00:02.66 bitrate=3932.2kbits/s speed=0.261x    frame=  216 fps= 20 q=31.0 size=    1536kB time=00:00:02.80 bitrate=4493.9kbits/s speed=0.261x    frame=  223 fps= 20 q=31.0 size=    1536kB time=00:00:02.91 bitrate=4314.2kbits/s speed=0.26x    frame=  230 fps= 20 q=31.0 size=    1536kB time=00:00:03.03 bitrate=4148.3kbits/s speed=0.259x    frame=  237 fps= 19 q=31.0 size=    1792kB time=00:00:03.15 bitrate=4660.4kbits/s speed=0.258x    frame=  244 fps= 19 q=31.0 size=    1792kB time=00:00:03.26 bitrate=4493.9kbits/s speed=0.257x    frame=  252 fps= 19 q=31.0 size=    1792kB time=00:00:03.40 bitrate=4317.7kbits/s speed=0.257x    frame=  261 fps= 19 q=31.0 size=    2048kB time=00:00:03.55 bitrate=4726.0kbits/s speed=0.257x    frame=  270 fps= 19 q=31.0 size=    2048kB time=00:00:03.70 bitrate=4534.4kbits/s speed=0.259x    frame=  280 fps= 19 q=31.0 size=    2304kB time=00:00:03.86 bitrate=4881.3kbits/s speed=0.259x    frame=  289 fps= 19 q=31.0 size=    2560kB time=00:00:04.01 bitrate=5221.1kbits/s speed=0.26x    frame=  297 fps= 19 q=31.0 size=    2560kB time=00:00:04.15 bitrate=5053.4kbits/s speed=0.26x    frame=  306 fps= 19 q=31.0 size=    2816kB time=00:00:04.30 bitrate=5364.8kbits/s speed=0.261x    frame=  317 fps= 19 q=31.0 size=    3072kB time=00:00:04.48 bitrate=5613.2kbits/s speed=0.263x    frame=  326 fps= 19 q=31.0 size=    3072kB time=00:00:04.63 bitrate=5431.5kbits/s speed=0.264x    frame=  333 fps= 18 q=31.0 size=    3072kB time=00:00:04.75 bitrate=5298.1kbits/s speed=0.263x    frame=  340 fps= 18 q=31.0 size=    3072kB time=00:00:04.86 bitrate=5171.1kbits/s speed=0.263x    frame=  347 fps= 18 q=31.0 size=    3328kB time=00:00:04.98 bitrate=5470.8kbits/s speed=0.262x    frame=  356 fps= 18 q=31.0 size=    3328kB time=00:00:05.13 bitrate=5311.0kbits/s speed=0.263x    frame=  365 fps= 18 q=31.0 size=    3328kB time=00:00:05.28 bitrate=5160.2kbits/s speed=0.263x    frame=  373 fps= 18 q=31.0 size=    3584kB time=00:00:05.41 bitrate=5420.3kbits/s speed=0.263x    frame=  382 fps= 18 q=31.0 size=    3584kB time=00:00:05.56 bitrate=5274.3kbits/s speed=0.264x    frame=  390 fps= 18 q=31.0 size=    3584kB time=00:00:05.70 bitrate=5150.9kbits/s speed=0.264x    frame=  398 fps= 18 q=31.0 size=    3584kB time=00:00:05.83 bitrate=5033.2kbits/s speed=0.264x    frame=  407 fps= 18 q=31.0 size=    3840kB time=00:00:05.98 bitrate=5257.5kbits/s speed=0.265x    frame=  415 fps= 18 q=31.0 size=    3840kB time=00:00:06.11 bitrate=5142.9kbits/s speed=0.265x    frame=  424 fps= 18 q=31.0 size=    3840kB time=00:00:06.26 bitrate=5019.8kbits/s speed=0.265x    frame=  432 fps= 18 q=31.0 size=    4096kB time=00:00:06.40 bitrate=5242.9kbits/s speed=0.265x    frame=  441 fps= 18 q=31.0 size=    4096kB time=00:00:06.55 bitrate=5122.8kbits/s speed=0.266x    frame=  449 fps= 18 q=31.0 size=    4096kB time=00:00:06.68 bitrate=5020.6kbits/s speed=0.266x    frame=  458 fps= 18 q=31.0 size=    4352kB time=00:00:06.83 bitrate=5217.3kbits/s speed=0.266x    frame=  467 fps= 18 q=31.0 size=    4352kB time=00:00:06.98 bitrate=5105.2kbits/s speed=0.266x    frame=  475 fps= 18 q=31.0 size=    4352kB time=00:00:07.11 bitrate=5009.6kbits/s speed=0.266x    frame=  483 fps= 18 q=31.0 size=    4608kB time=00:00:07.25 bitrate=5206.7kbits/s speed=0.266x    frame=  491 fps= 18 q=31.0 size=    4608kB time=00:00:07.38 bitrate=5112.7kbits/s speed=0.266x    frame=  498 fps= 18 q=31.0 size=    4608kB time=00:00:07.50 bitrate=5033.2kbits/s speed=0.266x    frame=  506 fps= 18 q=31.0 size=    4608kB time=00:00:07.63 bitrate=4945.3kbits/s speed=0.266x    frame=  514 fps= 18 q=31.0 size=    4864kB time=00:00:07.76 bitrate=5130.4kbits/s speed=0.265x    frame=  522 fps= 18 q=31.0 size=    4864kB time=00:00:07.90 bitrate=5043.8kbits/s speed=0.265x    frame=  529 fps= 17 q=31.0 size=    4864kB time=00:00:08.01 bitrate=4970.4kbits/s speed=0.265x    frame=  537 fps= 17 q=31.0 size=    5120kB time=00:00:08.15 bitrate=5146.4kbits/s speed=0.265x    frame=  544 fps= 17 q=31.0 size=    5120kB time=00:00:08.26 bitrate=5073.8kbits/s speed=0.264x    frame=  552 fps= 17 q=31.0 size=    5120kB time=00:00:08.40 bitrate=4993.2kbits/s speed=0.264x    frame=  558 fps= 17 q=31.0 size=    5376kB time=00:00:08.50 bitrate=5181.2kbits/s speed=0.263x    frame=  565 fps= 17 q=31.0 size=    5376kB time=00:00:08.61 bitrate=5111.1kbits/s speed=0.263x    frame=  571 fps= 17 q=31.0 size=    5376kB time=00:00:08.71 bitrate=5052.4kbits/s speed=0.262x    frame=  577 fps= 17 q=31.0 size=    5376kB time=00:00:08.81 bitrate=4995.1kbits/s speed=0.261x    frame=  584 fps= 17 q=31.0 size=    5632kB time=00:00:08.93 bitrate=5164.6kbits/s speed=0.26x    frame=  590 fps= 17 q=31.0 size=    5632kB time=00:00:09.03 bitrate=5107.5kbits/s speed=0.259x    frame=  597 fps= 17 q=31.0 size=    5632kB time=00:00:09.15 bitrate=5042.3kbits/s speed=0.259x    frame=  604 fps= 17 q=31.0 size=    5888kB time=00:00:09.26 bitrate=5205.2kbits/s speed=0.258x    frame=  611 fps= 17 q=31.0 size=    5888kB time=00:00:09.38 bitrate=5140.4kbits/s speed=0.258x    frame=  618 fps= 17 q=31.0 size=    6144kB time=00:00:09.50 bitrate=5298.1kbits/s speed=0.258x    frame=  625 fps= 17 q=31.0 size=    6144kB time=00:00:09.61 bitrate=5233.8kbits/s speed=0.257x    frame=  632 fps= 17 q=31.0 size=    6400kB time=00:00:09.73 bitrate=5386.5kbits/s speed=0.257x    frame=  639 fps= 17 q=31.0 size=    6400kB time=00:00:09.85 bitrate=5322.7kbits/s speed=0.257x    frame=  646 fps= 17 q=31.0 size=    6656kB time=00:00:09.96 bitrate=5470.8kbits/s speed=0.256x    frame=  653 fps= 17 q=31.0 size=    6656kB time=00:00:10.08 bitrate=5407.5kbits/s speed=0.256x    frame=  660 fps= 17 q=31.0 size=    6912kB time=00:00:10.20 bitrate=5551.3kbits/s speed=0.255x    frame=  667 fps= 16 q=31.0 size=    6912kB time=00:00:10.31 bitrate=5488.5kbits/s speed=0.255x    frame=  674 fps= 16 q=31.0 size=    7168kB time=00:00:10.43 bitrate=5628.1kbits/s speed=0.255x    frame=  681 fps= 16 q=31.0 size=    7168kB time=00:00:10.55 bitrate=5565.9kbits/s speed=0.255x    frame=  688 fps= 16 q=31.0 size=    7168kB time=00:00:10.66 bitrate=5505.0kbits/s speed=0.254x    frame=  695 fps= 16 q=31.0 size=    7424kB time=00:00:10.78 bitrate=5639.9kbits/s speed=0.254x    frame=  702 fps= 16 q=31.0 size=    7424kB time=00:00:10.90 bitrate=5579.6kbits/s speed=0.254x    frame=  708 fps= 16 q=31.0 size=    7424kB time=00:00:11.00 bitrate=5528.9kbits/s speed=0.253x    frame=  715 fps= 16 q=31.0 size=    7680kB time=00:00:11.11 bitrate=5659.5kbits/s speed=0.253x    frame=  721 fps= 16 q=31.0 size=    7680kB time=00:00:11.21 bitrate=5609.0kbits/s speed=0.252x    frame=  728 fps= 16 q=31.0 size=    7680kB time=00:00:11.33 bitrate=5551.3kbits/s speed=0.252x    frame=  734 fps= 16 q=31.0 size=    7936kB time=00:00:11.43 bitrate=5686.2kbits/s speed=0.251x    frame=  740 fps= 16 q=31.0 size=    7936kB time=00:00:11.53 bitrate=5636.9kbits/s speed=0.25x    frame=  747 fps= 16 q=31.0 size=    7936kB time=00:00:11.65 bitrate=5580.4kbits/s speed=0.25x    frame=  754 fps= 16 q=31.0 size=    8192kB time=00:00:11.76 bitrate=5703.3kbits/s speed=0.25x    frame=  760 fps= 16 q=31.0 size=    8192kB time=00:00:11.86 bitrate=5655.2kbits/s speed=0.249x    frame=  767 fps= 16 q=31.0 size=    8448kB time=00:00:11.98 bitrate=5775.2kbits/s speed=0.249x    frame=  774 fps= 16 q=31.0 size=    8448kB time=00:00:12.10 bitrate=5719.5kbits/s speed=0.249x    frame=  781 fps= 16 q=31.0 size=    8448kB time=00:00:12.21 bitrate=5664.9kbits/s speed=0.248x    frame=  788 fps= 16 q=31.0 size=    8704kB time=00:00:12.33 bitrate=5781.3kbits/s speed=0.248x    frame=  795 fps= 16 q=31.0 size=    8704kB time=00:00:12.45 bitrate=5727.2kbits/s speed=0.248x    frame=  802 fps= 16 q=31.0 size=    8960kB time=00:00:12.56 bitrate=5840.9kbits/s speed=0.248x    frame=  809 fps= 16 q=31.0 size=    8960kB time=00:00:12.68 bitrate=5787.1kbits/s speed=0.248x    frame=  817 fps= 16 q=31.0 size=    9216kB time=00:00:12.81 bitrate=5890.6kbits/s speed=0.248x    frame=  824 fps= 16 q=31.0 size=    9216kB time=00:00:12.93 bitrate=5837.4kbits/s speed=0.248x    frame=  831 fps= 16 q=31.0 size=    9216kB time=00:00:13.05 bitrate=5785.2kbits/s speed=0.248x    frame=  839 fps= 16 q=31.0 size=    9472kB time=00:00:13.18 bitrate=5885.8kbits/s speed=0.248x    frame=  847 fps= 16 q=31.0 size=    9472kB time=00:00:13.31 bitrate=5826.9kbits/s speed=0.248x    frame=  855 fps= 16 q=31.0 size=    9728kB time=00:00:13.45 bitrate=5925.0kbits/s speed=0.248x    frame=  864 fps= 16 q=31.0 size=    9728kB time=00:00:13.60 bitrate=5859.7kbits/s speed=0.248x    frame=  874 fps= 16 q=31.0 size=    9984kB time=00:00:13.76 bitrate=5941.1kbits/s speed=0.249x    frame=  884 fps= 16 q=31.0 size=    9984kB time=00:00:13.93 bitrate=5870.0kbits/s speed=0.25x    frame=  893 fps= 16 q=31.0 size=   10240kB time=00:00:14.08 bitrate=5956.4kbits/s speed=0.25x    frame=  903 fps= 16 q=31.0 size=   10240kB time=00:00:14.25 bitrate=5886.7kbits/s speed=0.251x    frame=  913 fps= 16 q=31.0 size=   10496kB time=00:00:14.41 bitrate=5964.2kbits/s speed=0.251x    frame=  921 fps= 16 q=31.0 size=   10496kB time=00:00:14.55 bitrate=5909.5kbits/s speed=0.251x    frame=  930 fps= 16 q=31.0 size=   10752kB time=00:00:14.70 bitrate=5991.9kbits/s speed=0.252x    frame=  939 fps= 16 q=31.0 size=   10752kB time=00:00:14.85 bitrate=5931.3kbits/s speed=0.252x    frame=  949 fps= 16 q=31.0 size=   10752kB time=00:00:15.01 bitrate=5865.5kbits/s speed=0.253x    frame=  958 fps= 16 q=31.0 size=   10752kB time=00:00:15.16 bitrate=5807.5kbits/s speed=0.253x    frame=  968 fps= 16 q=31.0 size=   11008kB time=00:00:15.33 bitrate=5881.1kbits/s speed=0.254x    frame=  978 fps= 16 q=31.0 size=   11264kB time=00:00:15.50 bitrate=5953.2kbits/s speed=0.254x    frame=  989 fps= 16 q=31.0 size=   11264kB time=00:00:15.68 bitrate=5883.6kbits/s speed=0.255x    frame= 1000 fps= 16 q=31.0 size=   11520kB time=00:00:15.86 bitrate=5947.8kbits/s speed=0.256x    frame= 1011 fps= 16 q=31.0 size=   11776kB time=00:00:16.05 bitrate=6010.5kbits/s speed=0.257x    frame= 1023 fps= 16 q=31.0 size=   11776kB time=00:00:16.25 bitrate=5936.6kbits/s speed=0.258x    frame= 1035 fps= 16 q=31.0 size=   12032kB time=00:00:16.45 bitrate=5991.9kbits/s speed=0.259x    frame= 1047 fps= 16 q=31.0 size=   12032kB time=00:00:16.65 bitrate=5919.9kbits/s speed=0.26x    frame= 1059 fps= 16 q=31.0 size=   12032kB time=00:00:16.85 bitrate=5849.6kbits/s speed=0.261x    frame= 1071 fps= 16 q=31.0 size=   12032kB time=00:00:17.05 bitrate=5781.0kbits/s speed=0.262x    frame= 1082 fps= 17 q=31.0 size=   12288kB time=00:00:17.23 bitrate=5841.2kbits/s speed=0.263x    frame= 1093 fps= 17 q=31.0 size=   12288kB time=00:00:17.41 bitrate=5779.7kbits/s speed=0.264x    frame= 1103 fps= 17 q=31.0 size=   12288kB time=00:00:17.58 bitrate=5724.9kbits/s speed=0.264x    frame= 1114 fps= 17 q=31.0 size=   12288kB time=00:00:17.76 bitrate=5665.9kbits/s speed=0.265x    frame= 1124 fps= 17 q=31.0 size=   12544kB time=00:00:17.93 bitrate=5730.1kbits/s speed=0.266x    frame= 1134 fps= 17 q=31.0 size=   12544kB time=00:00:18.10 bitrate=5677.4kbits/s speed=0.266x    frame= 1143 fps= 17 q=31.0 size=   12544kB time=00:00:18.25 bitrate=5630.7kbits/s speed=0.266x    frame= 1153 fps= 17 q=31.0 size=   12544kB time=00:00:18.41 bitrate=5579.8kbits/s speed=0.267x    frame= 1163 fps= 17 q=31.0 size=   12800kB time=00:00:18.58 bitrate=5642.6kbits/s speed=0.267x    frame= 1172 fps= 17 q=31.0 size=   12800kB time=00:00:18.73 bitrate=5597.4kbits/s speed=0.267x    frame= 1181 fps= 17 q=31.0 size=   12800kB time=00:00:18.88 bitrate=5552.9kbits/s speed=0.268x    frame= 1190 fps= 17 q=31.0 size=   12800kB time=00:00:19.03 bitrate=5509.2kbits/s speed=0.268x    frame= 1199 fps= 17 q=31.0 size=   13056kB time=00:00:19.18 bitrate=5575.4kbits/s speed=0.268x    frame= 1208 fps= 17 q=31.0 size=   13056kB time=00:00:19.33 bitrate=5532.1kbits/s speed=0.268x    frame= 1217 fps= 17 q=31.0 size=   13056kB time=00:00:19.48 bitrate=5489.6kbits/s speed=0.268x    frame= 1227 fps= 17 q=31.0 size=   13056kB time=00:00:19.65 bitrate=5443.0kbits/s speed=0.269x    frame= 1236 fps= 17 q=31.0 size=   13056kB time=00:00:19.80 bitrate=5401.8kbits/s speed=0.269x    frame= 1245 fps= 17 q=31.0 size=   13312kB time=00:00:19.95 bitrate=5466.3kbits/s speed=0.269x    frame= 1254 fps= 17 q=31.0 size=   13312kB time=00:00:20.10 bitrate=5425.5kbits/s speed=0.269x    frame= 1262 fps= 17 q=31.0 size=   13312kB time=00:00:20.23 bitrate=5389.7kbits/s speed=0.269x    frame= 1270 fps= 17 q=31.0 size=   13312kB time=00:00:20.36 bitrate=5354.4kbits/s speed=0.269x    frame= 1279 fps= 17 q=31.0 size=   13568kB time=00:00:20.51 bitrate=5417.5kbits/s speed=0.269x    frame= 1286 fps= 17 q=31.0 size=   13568kB time=00:00:20.63 bitrate=5386.9kbits/s speed=0.269x    frame= 1295 fps= 17 q=31.0 size=   13568kB time=00:00:20.78 bitrate=5348.0kbits/s speed=0.269x    frame= 1303 fps= 17 q=31.0 size=   13824kB time=00:00:20.91 bitrate=5414.2kbits/s speed=0.269x    frame= 1311 fps= 17 q=31.0 size=   13824kB time=00:00:21.05 bitrate=5379.9kbits/s speed=0.269x    frame= 1319 fps= 17 q=31.0 size=   13824kB time=00:00:21.18 bitrate=5346.0kbits/s speed=0.269x    frame= 1327 fps= 17 q=31.0 size=   14080kB time=00:00:21.31 bitrate=5410.9kbits/s speed=0.269x    frame= 1336 fps= 17 q=31.0 size=   14080kB time=00:00:21.46 bitrate=5373.1kbits/s speed=0.269x    frame= 1343 fps= 17 q=31.0 size=   14080kB time=00:00:21.58 bitrate=5344.1kbits/s speed=0.269x    frame= 1351 fps= 17 q=31.0 size=   14336kB time=00:00:21.71 bitrate=5407.9kbits/s speed=0.269x    frame= 1359 fps= 17 q=31.0 size=   14336kB time=00:00:21.85 bitrate=5374.9kbits/s speed=0.269x    frame= 1367 fps= 17 q=31.0 size=   14592kB time=00:00:21.98 bitrate=5437.7kbits/s speed=0.269x    frame= 1375 fps= 17 q=31.0 size=   14592kB time=00:00:22.11 bitrate=5404.9kbits/s speed=0.269x    frame= 1384 fps= 17 q=31.0 size=   14592kB time=00:00:22.26 bitrate=5368.5kbits/s speed=0.269x    frame= 1392 fps= 17 q=31.0 size=   14848kB time=00:00:22.40 bitrate=5430.1kbits/s speed=0.269x    frame= 1400 fps= 17 q=31.0 size=   14848kB time=00:00:22.53 bitrate=5398.0kbits/s speed=0.269x    frame= 1409 fps= 17 q=31.0 size=   15104kB time=00:00:22.68 bitrate=5454.8kbits/s speed=0.269x    frame= 1417 fps= 17 q=31.0 size=   15104kB time=00:00:22.81 bitrate=5422.9kbits/s speed=0.269x    frame= 1425 fps= 17 q=31.0 size=   15104kB time=00:00:22.95 bitrate=5391.4kbits/s speed=0.269x    frame= 1434 fps= 17 q=31.0 size=   15360kB time=00:00:23.10 bitrate=5447.1kbits/s speed=0.269x    frame= 1443 fps= 17 q=31.0 size=   15360kB time=00:00:23.25 bitrate=5412.0kbits/s speed=0.269x    frame= 1451 fps= 17 q=31.0 size=   15360kB time=00:00:23.38 bitrate=5381.1kbits/s speed=0.269x    frame= 1459 fps= 17 q=31.0 size=   15616kB time=00:00:23.51 bitrate=5439.8kbits/s speed=0.269x    frame= 1467 fps= 17 q=31.0 size=   15616kB time=00:00:23.65 bitrate=5409.1kbits/s speed=0.269x    frame= 1475 fps= 17 q=31.0 size=   15616kB time=00:00:23.78 bitrate=5378.8kbits/s speed=0.269x    frame= 1483 fps= 17 q=31.0 size=   15616kB time=00:00:23.91 bitrate=5348.8kbits/s speed=0.269x    frame= 1490 fps= 17 q=31.0 size=   15872kB time=00:00:24.03 bitrate=5410.1kbits/s speed=0.269x    frame= 1499 fps= 17 q=31.0 size=   15872kB time=00:00:24.18 bitrate=5376.6kbits/s speed=0.269x    frame= 1507 fps= 17 q=31.0 size=   15872kB time=00:00:24.31 bitrate=5347.1kbits/s speed=0.269x    frame= 1515 fps= 17 q=31.0 size=   16128kB time=00:00:24.45 bitrate=5403.7kbits/s speed=0.269x    frame= 1523 fps= 17 q=31.0 size=   16128kB time=00:00:24.58 bitrate=5374.4kbits/s speed=0.269x    frame= 1530 fps= 17 q=31.0 size=   16384kB time=00:00:24.70 bitrate=5433.9kbits/s speed=0.269x    frame= 1538 fps= 17 q=31.0 size=   16384kB time=00:00:24.83 bitrate=5404.7kbits/s speed=0.269x    frame= 1546 fps= 17 q=31.0 size=   16640kB time=00:00:24.96 bitrate=5459.9kbits/s speed=0.269x    frame= 1554 fps= 17 q=31.0 size=   16640kB time=00:00:25.10 bitrate=5430.9kbits/s speed=0.269x    frame= 1561 fps= 17 q=31.0 size=   16896kB time=00:00:25.21 bitrate=5488.9kbits/s speed=0.268x    frame= 1570 fps= 17 q=31.0 size=   16896kB time=00:00:25.36 bitrate=5456.5kbits/s speed=0.268x    frame= 1578 fps= 17 q=31.0 size=   17152kB time=00:00:25.50 bitrate=5510.2kbits/s speed=0.268x    frame= 1586 fps= 17 q=31.0 size=   17152kB time=00:00:25.63 bitrate=5481.5kbits/s speed=0.268x    frame= 1595 fps= 17 q=31.0 size=   17152kB time=00:00:25.78 bitrate=5449.6kbits/s speed=0.268x    frame= 1603 fps= 17 q=31.0 size=   17408kB time=00:00:25.91 bitrate=5502.5kbits/s speed=0.268x    frame= 1611 fps= 17 q=31.0 size=   17408kB time=00:00:26.05 bitrate=5474.3kbits/s speed=0.268x    frame= 1620 fps= 17 q=31.0 size=   17664kB time=00:00:26.20 bitrate=5523.0kbits/s speed=0.268x    frame= 1629 fps= 17 q=31.0 size=   17664kB time=00:00:26.35 bitrate=5491.6kbits/s speed=0.269x    frame= 1637 fps= 17 q=31.0 size=   17664kB time=00:00:26.48 bitrate=5463.9kbits/s speed=0.269x    frame= 1646 fps= 17 q=31.0 size=   17664kB time=00:00:26.63 bitrate=5433.2kbits/s speed=0.269x    frame= 1654 fps= 17 q=31.0 size=   17920kB time=00:00:26.76 bitrate=5484.5kbits/s speed=0.269x    frame= 1663 fps= 17 q=31.0 size=   17920kB time=00:00:26.91 bitrate=5453.9kbits/s speed=0.269x    frame= 1672 fps= 17 q=31.0 size=   17920kB time=00:00:27.06 bitrate=5423.7kbits/s speed=0.269x    frame= 1681 fps= 17 q=31.0 size=   18176kB time=00:00:27.21 bitrate=5470.8kbits/s speed=0.269x    frame= 1689 fps= 17 q=31.0 size=   18176kB time=00:00:27.35 bitrate=5444.2kbits/s speed=0.269x    frame= 1697 fps= 17 q=31.0 size=   18176kB time=00:00:27.48 bitrate=5417.7kbits/s speed=0.269x    frame= 1706 fps= 17 q=31.0 size=   18176kB time=00:00:27.63 bitrate=5388.3kbits/s speed=0.269x    frame= 1714 fps= 17 q=31.0 size=   18432kB time=00:00:27.76 bitrate=5438.0kbits/s speed=0.269x    frame= 1723 fps= 17 q=31.0 size=   18432kB time=00:00:27.91 bitrate=5408.8kbits/s speed=0.269x    frame= 1731 fps= 17 q=31.0 size=   18432kB time=00:00:28.05 bitrate=5383.1kbits/s speed=0.269x    frame= 1740 fps= 17 q=31.0 size=   18688kB time=00:00:28.20 bitrate=5428.8kbits/s speed=0.269x    frame= 1749 fps= 17 q=31.0 size=   18688kB time=00:00:28.35 bitrate=5400.1kbits/s speed=0.269x    frame= 1758 fps= 17 q=31.0 size=   18688kB time=00:00:28.50 bitrate=5371.7kbits/s speed=0.27x    frame= 1767 fps= 17 q=31.0 size=   18944kB time=00:00:28.65 bitrate=5416.7kbits/s speed=0.27x    frame= 1776 fps= 17 q=31.0 size=   18944kB time=00:00:28.80 bitrate=5388.5kbits/s speed=0.27x    frame= 1785 fps= 17 q=31.0 size=   19200kB time=00:00:28.95 bitrate=5433.0kbits/s speed=0.27x    frame= 1795 fps= 17 q=31.0 size=   19200kB time=00:00:29.11 bitrate=5401.9kbits/s speed=0.27x    frame= 1804 fps= 17 q=31.0 size=   19456kB time=00:00:29.26 bitrate=5445.9kbits/s speed=0.27x    frame= 1813 fps= 17 q=31.0 size=   19456kB time=00:00:29.41 bitrate=5418.1kbits/s speed=0.27x    frame= 1822 fps= 17 q=31.0 size=   19456kB time=00:00:29.56 bitrate=5390.7kbits/s speed=0.271x    frame= 1830 fps= 17 q=31.0 size=   19712kB time=00:00:29.70 bitrate=5437.1kbits/s speed=0.27x    frame= 1838 fps= 17 q=31.0 size=   19712kB time=00:00:29.83 bitrate=5412.8kbits/s speed=0.27x    frame= 1845 fps= 17 q=31.0 size=   19712kB time=00:00:29.95 bitrate=5391.7kbits/s speed=0.27x    frame= 1853 fps= 17 q=31.0 size=   19712kB time=00:00:30.08 bitrate=5367.8kbits/s speed=0.27x    frame= 1861 fps= 17 q=31.0 size=   19712kB time=00:00:30.21 bitrate=5344.1kbits/s speed=0.27x    frame= 1868 fps= 17 q=31.0 size=   19968kB time=00:00:30.33 bitrate=5392.7kbits/s speed=0.27x    frame= 1876 fps= 17 q=31.0 size=   19968kB time=00:00:30.46 bitrate=5369.1kbits/s speed=0.27x    frame= 1884 fps= 17 q=31.0 size=   20224kB time=00:00:30.60 bitrate=5414.2kbits/s speed=0.27x    frame= 1892 fps= 17 q=31.0 size=   20224kB time=00:00:30.73 bitrate=5390.7kbits/s speed=0.27x    frame= 1900 fps= 17 q=31.0 size=   20480kB time=00:00:30.86 bitrate=5435.4kbits/s speed=0.27x    frame= 1909 fps= 17 q=31.0 size=   20480kB time=00:00:31.01 bitrate=5409.1kbits/s speed=0.27x    frame= 1917 fps= 17 q=31.0 size=   20736kB time=00:00:31.15 bitrate=5453.3kbits/s speed=0.27x    frame= 1926 fps= 17 q=31.0 size=   20736kB time=00:00:31.30 bitrate=5427.1kbits/s speed=0.27x    frame= 1934 fps= 17 q=31.0 size=   20992kB time=00:00:31.43 bitrate=5470.8kbits/s speed=0.27x    frame= 1943 fps= 17 q=31.0 size=   20992kB time=00:00:31.58 bitrate=5444.8kbits/s speed=0.27x    frame= 1951 fps= 17 q=31.0 size=   20992kB time=00:00:31.71 bitrate=5422.0kbits/s speed=0.27x    frame= 1959 fps= 17 q=31.0 size=   21248kB time=00:00:31.85 bitrate=5465.1kbits/s speed=0.27x    frame= 1967 fps= 17 q=31.0 size=   21248kB time=00:00:31.98 bitrate=5442.3kbits/s speed=0.27x    frame= 1975 fps= 17 q=31.0 size=   21248kB time=00:00:32.11 bitrate=5419.7kbits/s speed=0.27x    frame= 1983 fps= 17 q=31.0 size=   21248kB time=00:00:32.25 bitrate=5397.3kbits/s speed=0.27x    frame= 1991 fps= 17 q=31.0 size=   21504kB time=00:00:32.38 bitrate=5439.9kbits/s speed=0.27x    frame= 1999 fps= 17 q=31.0 size=   21504kB time=00:00:32.51 bitrate=5417.6kbits/s speed=0.27x    frame= 2007 fps= 17 q=31.0 size=   21504kB time=00:00:32.65 bitrate=5395.4kbits/s speed=0.27x    frame= 2014 fps= 17 q=31.0 size=   21504kB time=00:00:32.76 bitrate=5376.2kbits/s speed=0.27x    frame= 2022 fps= 17 q=31.0 size=   21760kB time=00:00:32.90 bitrate=5418.2kbits/s speed=0.27x    frame= 2030 fps= 17 q=31.0 size=   21760kB time=00:00:33.03 bitrate=5396.3kbits/s speed=0.269x    frame= 2038 fps= 17 q=31.0 size=   22016kB time=00:00:33.16 bitrate=5437.8kbits/s speed=0.269x    frame= 2045 fps= 17 q=31.0 size=   22016kB time=00:00:33.28 bitrate=5418.8kbits/s speed=0.269x    frame= 2053 fps= 17 q=31.0 size=   22272kB time=00:00:33.41 bitrate=5459.9kbits/s speed=0.269x    frame= 2061 fps= 17 q=31.0 size=   22272kB time=00:00:33.55 bitrate=5438.2kbits/s speed=0.269x    frame= 2069 fps= 17 q=31.0 size=   22528kB time=00:00:33.68 bitrate=5479.0kbits/s speed=0.269x    frame= 2076 fps= 17 q=31.0 size=   22528kB time=00:00:33.80 bitrate=5460.0kbits/s speed=0.269x    frame= 2084 fps= 17 q=31.0 size=   22784kB time=00:00:33.93 bitrate=5500.4kbits/s speed=0.269x    frame= 2092 fps= 17 q=31.0 size=   22784kB time=00:00:34.06 bitrate=5478.9kbits/s speed=0.269x    frame= 2100 fps= 17 q=31.0 size=   23040kB time=00:00:34.20 bitrate=5518.8kbits/s speed=0.269x    frame= 2108 fps= 17 q=31.0 size=   23040kB time=00:00:34.33 bitrate=5497.4kbits/s speed=0.269x    frame= 2116 fps= 17 q=31.0 size=   23296kB time=00:00:34.46 bitrate=5537.0kbits/s speed=0.269x    frame= 2124 fps= 17 q=31.0 size=   23296kB time=00:00:34.60 bitrate=5515.6kbits/s speed=0.269x    frame= 2132 fps= 16 q=31.0 size=   23296kB time=00:00:34.73 bitrate=5494.5kbits/s speed=0.269x    frame= 2140 fps= 16 q=31.0 size=   23552kB time=00:00:34.86 bitrate=5533.6kbits/s speed=0.269x    frame= 2148 fps= 16 q=31.0 size=   23552kB time=00:00:35.00 bitrate=5512.5kbits/s speed=0.269x    frame= 2156 fps= 16 q=31.0 size=   23552kB time=00:00:35.13 bitrate=5491.6kbits/s speed=0.269x    frame= 2164 fps= 16 q=31.0 size=   23808kB time=00:00:35.26 bitrate=5530.3kbits/s speed=0.269x    frame= 2172 fps= 16 q=31.0 size=   23808kB time=00:00:35.40 bitrate=5509.5kbits/s speed=0.269x    frame= 2180 fps= 16 q=31.0 size=   23808kB time=00:00:35.53 bitrate=5488.8kbits/s speed=0.269x    frame= 2188 fps= 16 q=31.0 size=   23808kB time=00:00:35.66 bitrate=5468.3kbits/s speed=0.269x    frame= 2196 fps= 16 q=31.0 size=   23808kB time=00:00:35.80 bitrate=5447.9kbits/s speed=0.269x    frame= 2204 fps= 16 q=31.0 size=   24064kB time=00:00:35.93 bitrate=5486.1kbits/s speed=0.269x    frame= 2212 fps= 16 q=31.0 size=   24064kB time=00:00:36.06 bitrate=5465.8kbits/s speed=0.269x    frame= 2220 fps= 16 q=31.0 size=   24064kB time=00:00:36.20 bitrate=5445.6kbits/s speed=0.269x    frame= 2228 fps= 16 q=31.0 size=   24064kB time=00:00:36.33 bitrate=5425.7kbits/s speed=0.268x    frame= 2236 fps= 16 q=31.0 size=   24320kB time=00:00:36.46 bitrate=5463.3kbits/s speed=0.268x    frame= 2243 fps= 16 q=31.0 size=   24320kB time=00:00:36.58 bitrate=5445.9kbits/s speed=0.268x    frame= 2251 fps= 16 q=31.0 size=   24576kB time=00:00:36.71 bitrate=5483.2kbits/s speed=0.268x    frame= 2259 fps= 16 q=31.0 size=   24576kB time=00:00:36.85 bitrate=5463.4kbits/s speed=0.268x    frame= 2268 fps= 16 q=31.0 size=   24576kB time=00:00:37.00 bitrate=5441.3kbits/s speed=0.268x    frame= 2276 fps= 16 q=31.0 size=   24832kB time=00:00:37.13 bitrate=5478.2kbits/s speed=0.268x    frame= 2285 fps= 16 q=31.0 size=   24832kB time=00:00:37.28 bitrate=5456.2kbits/s speed=0.268x    frame= 2293 fps= 16 q=29.0 size=   24832kB time=00:00:37.41 bitrate=5436.7kbits/s speed=0.268x    frame= 2301 fps= 16 q=31.0 size=   25088kB time=00:00:37.55 bitrate=5473.3kbits/s speed=0.268x    frame= 2309 fps= 16 q=31.0 size=   25088kB time=00:00:37.68 bitrate=5453.9kbits/s speed=0.268x    frame= 2318 fps= 16 q=31.0 size=   25088kB time=00:00:37.83 bitrate=5432.3kbits/s speed=0.268x    frame= 2326 fps= 16 q=31.0 size=   25344kB time=00:00:37.96 bitrate=5468.4kbits/s speed=0.268x    frame= 2334 fps= 16 q=31.0 size=   25344kB time=00:00:38.10 bitrate=5449.3kbits/s speed=0.268x    frame= 2343 fps= 16 q=31.0 size=   25344kB time=00:00:38.25 bitrate=5427.9kbits/s speed=0.268x    frame= 2351 fps= 16 q=31.0 size=   25600kB time=00:00:38.38 bitrate=5463.7kbits/s speed=0.268x    frame= 2360 fps= 16 q=31.0 size=   25600kB time=00:00:38.53 bitrate=5442.4kbits/s speed=0.269x    frame= 2368 fps= 16 q=31.0 size=   25600kB time=00:00:38.66 bitrate=5423.7kbits/s speed=0.269x    frame= 2376 fps= 16 q=31.0 size=   25856kB time=00:00:38.80 bitrate=5459.1kbits/s speed=0.269x    frame= 2385 fps= 16 q=31.0 size=   25856kB time=00:00:38.95 bitrate=5438.1kbits/s speed=0.269x    frame= 2393 fps= 16 q=31.0 size=   25856kB time=00:00:39.08 bitrate=5419.5kbits/s speed=0.269x    frame= 2402 fps= 16 q=31.0 size=   25856kB time=00:00:39.23 bitrate=5398.8kbits/s speed=0.269x    frame= 2411 fps= 16 q=31.0 size=   26112kB time=00:00:39.38 bitrate=5431.5kbits/s speed=0.269x    frame= 2420 fps= 16 q=31.0 size=   26112kB time=00:00:39.53 bitrate=5410.9kbits/s speed=0.269x    frame= 2429 fps= 16 q=31.0 size=   26112kB time=00:00:39.68 bitrate=5390.4kbits/s speed=0.269x    frame= 2438 fps= 16 q=31.0 size=   26112kB time=00:00:39.83 bitrate=5370.1kbits/s speed=0.269x    frame= 2447 fps= 16 q=31.0 size=   26112kB time=00:00:39.98 bitrate=5350.0kbits/s speed=0.269x    frame= 2456 fps= 16 q=31.0 size=   26112kB time=00:00:40.13 bitrate=5330.0kbits/s speed=0.269x    frame= 2466 fps= 16 q=31.0 size=   26112kB time=00:00:40.30 bitrate=5307.9kbits/s speed=0.269x    frame= 2475 fps= 16 q=31.0 size=   26368kB time=00:00:40.45 bitrate=5340.1kbits/s speed=0.269x    frame= 2484 fps= 16 q=31.0 size=   26368kB time=00:00:40.60 bitrate=5320.4kbits/s speed=0.27x    frame= 2493 fps= 16 q=31.0 size=   26368kB time=00:00:40.75 bitrate=5300.8kbits/s speed=0.27x    frame= 2503 fps= 17 q=31.0 size=   26368kB time=00:00:40.91 bitrate=5279.2kbits/s speed=0.27x    frame= 2512 fps= 17 q=31.0 size=   26368kB time=00:00:41.06 bitrate=5259.9kbits/s speed=0.27x    frame= 2521 fps= 17 q=31.0 size=   26368kB time=00:00:41.21 bitrate=5240.8kbits/s speed=0.27x    frame= 2530 fps= 17 q=31.0 size=   26368kB time=00:00:41.36 bitrate=5221.8kbits/s speed=0.27x    frame= 2540 fps= 17 q=31.0 size=   26368kB time=00:00:41.53 bitrate=5200.8kbits/s speed=0.27x    frame= 2549 fps= 17 q=31.0 size=   26624kB time=00:00:41.68 bitrate=5232.4kbits/s speed=0.27x    frame= 2558 fps= 17 q=31.0 size=   26624kB time=00:00:41.83 bitrate=5213.6kbits/s speed=0.27x    frame= 2567 fps= 17 q=31.0 size=   26624kB time=00:00:41.98 bitrate=5195.0kbits/s speed=0.271x    frame= 2577 fps= 17 q=31.0 size=   26624kB time=00:00:42.15 bitrate=5174.5kbits/s speed=0.271x    frame= 2586 fps= 17 q=31.0 size=   26624kB time=00:00:42.30 bitrate=5156.1kbits/s speed=0.271x    frame= 2595 fps= 17 q=31.0 size=   26624kB time=00:00:42.45 bitrate=5137.9kbits/s speed=0.271x    frame= 2604 fps= 17 q=31.0 size=   26624kB time=00:00:42.60 bitrate=5119.8kbits/s speed=0.271x    frame= 2613 fps= 17 q=31.0 size=   26624kB time=00:00:42.75 bitrate=5101.8kbits/s speed=0.271x    frame= 2623 fps= 17 q=31.0 size=   26624kB time=00:00:42.91 bitrate=5082.0kbits/s speed=0.271x    frame= 2632 fps= 17 q=31.0 size=   26624kB time=00:00:43.06 bitrate=5064.3kbits/s speed=0.271x    frame= 2641 fps= 17 q=31.0 size=   26624kB time=00:00:43.21 bitrate=5046.8kbits/s speed=0.271x    frame= 2650 fps= 17 q=31.0 size=   26624kB time=00:00:43.36 bitrate=5029.3kbits/s speed=0.271x    frame= 2659 fps= 17 q=31.0 size=   26880kB time=00:00:43.51 bitrate=5060.2kbits/s speed=0.272x    frame= 2668 fps= 17 q=31.0 size=   26880kB time=00:00:43.66 bitrate=5042.8kbits/s speed=0.272x    frame= 2677 fps= 17 q=31.0 size=   26880kB time=00:00:43.81 bitrate=5025.5kbits/s speed=0.272x    frame= 2686 fps= 17 q=31.0 size=   26880kB time=00:00:43.96 bitrate=5008.4kbits/s speed=0.272x    frame= 2695 fps= 17 q=31.0 size=   26880kB time=00:00:44.11 bitrate=4991.3kbits/s speed=0.272x    frame= 2705 fps= 17 q=31.0 size=   26880kB time=00:00:44.28 bitrate=4972.5kbits/s speed=0.272x    frame= 2714 fps= 17 q=31.0 size=   26880kB time=00:00:44.43 bitrate=4955.8kbits/s speed=0.272x    frame= 2724 fps= 17 q=31.0 size=   26880kB time=00:00:44.60 bitrate=4937.2kbits/s speed=0.272x    frame= 2734 fps= 17 q=-1.0 Lsize=   27202kB time=00:00:45.55 bitrate=4892.2kbits/s speed=0.277x    
video:27190kB audio:0kB subtitle:0kB other streams:0kB global headers:0kB muxing overhead: 0.043879%
[libx264 @ 0x562a4009e9c0] frame I:11    Avg QP:22.08  size: 62791
[libx264 @ 0x562a4009e9c0] frame P:2723  Avg QP:27.65  size:  9971
[libx264 @ 0x562a4009e9c0] mb I  I16..4: 27.4% 59.4% 13.2%
[libx264 @ 0x562a4009e9c0] mb P  I16..4:  0.7%  1.1%  0.4%  P16..4: 11.9%  3.0%  2.1%  0.0%  0.0%    skip:80.8%
[libx264 @ 0x562a4009e9c0] 8x8 transform intra:50.8% inter:55.7%
[libx264 @ 0x562a4009e9c0] coded y,uvDC,uvAC intra: 20.3% 17.4% 7.8% inter: 4.2% 4.5% 0.5%
[libx264 @ 0x562a4009e9c0] i16 v,h,dc,p: 12% 30%  5% 53%
[libx264 @ 0x562a4009e9c0] i8 v,h,dc,ddl,ddr,vr,hd,vl,hu: 13%  7% 69%  2%  2%  2%  2%  1%  2%
[libx264 @ 0x562a4009e9c0] i4 v,h,dc,ddl,ddr,vr,hd,vl,hu: 30% 18% 23%  5%  4%  5%  4%  5%  4%
[libx264 @ 0x562a4009e9c0] i8c dc,h,v,p: 84%  9%  5%  2%
[libx264 @ 0x562a4009e9c0] Weighted P-Frames: Y:0.0% UV:0.0%
[libx264 @ 0x562a4009e9c0] ref P L0: 61.5% 18.5% 14.2%  5.8%
[libx264 @ 0x562a4009e9c0] kb/s:4888.14
